<?xml version="1.0" encoding="UTF-8" standalone="no"?>
<svg
   viewBox="0 0 16.933335 16.93333"
   version="1.1"
   id="svg12"
   sodipodi:docname="icon.svg"
   inkscape:version="1.3.2 (091e20e, 2023-11-25, custom)"
   inkscape:export-filename="..\..\..\res\pieces\fide\icon.png"
   inkscape:export-xdpi="2177.0078"
   inkscape:export-ydpi="2177.0078"
   xmlns:inkscape="http://www.inkscape.org/namespaces/inkscape"
   xmlns:sodipodi="http://sodipodi.sourceforge.net/DTD/sodipodi-0.dtd"
   xmlns:xlink="http://www.w3.org/1999/xlink"
   xmlns="http://www.w3.org/2000/svg"
   xmlns:svg="http://www.w3.org/2000/svg">
  <sodipodi:namedview
     id="namedview12"
     pagecolor="#ffffff"
     bordercolor="#000000"
     borderopacity="0.25"
     inkscape:showpageshadow="2"
     inkscape:pageopacity="0.0"
     inkscape:pagecheckerboard="true"
     inkscape:deskcolor="#d1d1d1"
     inkscape:zoom="74.457112"
     inkscape:cx="8.4209551"
     inkscape:cy="6.3056434"
     inkscape:window-width="1920"
     inkscape:window-height="1111"
     inkscape:window-x="-9"
     inkscape:window-y="-9"
     inkscape:window-maximized="1"
     inkscape:current-layer="svg12" />
  <defs
     id="defs3">
    <linearGradient
       id="a">
      <stop
         offset="0"
         stop-color="#fff"
         id="stop1" />
    </linearGradient>
    <linearGradient
       id="b"
       gradientTransform="translate(-6e-8 2.1166665)">
      <stop
         offset="0"
         stop-color="#ccc"
         id="stop2" />
    </linearGradient>
    <linearGradient
       id="c">
      <stop
         offset="0"
         stop-opacity=".2"
         id="stop3" />
    </linearGradient>
    <linearGradient
       xlink:href="#a"
       id="k"
       x1="76.200043"
       x2="84.666718"
       y1="12.964581"
       y2="12.964581"
       gradientUnits="userSpaceOnUse" />
    <linearGradient
       xlink:href="#a"
       id="j"
       x1="19.049967"
       x2="22.224962"
       y1="5.8208327"
       y2="5.8208327"
       gradientUnits="userSpaceOnUse" />
    <linearGradient
       xlink:href="#a"
       id="i"
       x1="29.633303"
       x2="32.808296"
       y1="5.8208327"
       y2="5.8208327"
       gradientUnits="userSpaceOnUse" />
    <linearGradient
       xlink:href="#a"
       id="h"
       x1="26.4583"
       x2="29.633295"
       y1="3.4395828"
       y2="3.4395828"
       gradientUnits="userSpaceOnUse" />
    <linearGradient
       xlink:href="#a"
       id="g"
       x1="22.22497"
       x2="25.399965"
       y1="3.4395826"
       y2="3.4395826"
       gradientUnits="userSpaceOnUse" />
    <linearGradient
       xlink:href="#a"
       id="e"
       x1="20.637465"
       x2="31.220797"
       y1="8.2020826"
       y2="8.2020826"
       gradientUnits="userSpaceOnUse" />
    <linearGradient
       xlink:href="#b"
       id="l"
       gradientTransform="translate(-6e-8 2.1166665)"
       gradientUnits="userSpaceOnUse" />
    <linearGradient
       xlink:href="#b"
       id="f"
       gradientTransform="translate(-6e-8 2.1166665)"
       gradientUnits="userSpaceOnUse" />
    <linearGradient
       xlink:href="#c"
       id="d"
       x1="4.2333326"
       x2="103.04872"
       y1="24.341663"
       y2="24.341663"
       gradientTransform="matrix(1 0 0 1.25 .79374989 -3.0427069)"
       gradientUnits="userSpaceOnUse" />
  </defs>
  <path
     fill="url(#d)"
     d="M5.0270826 14.816665c0 .992188 2.645833 1.322916 4.2333328 1.322916 1.5874976 0 4.2333306-.330728 4.2333306-1.322916 0-.992187-2.778792-1.322916-4.2333306-1.322916-1.4545399 0-4.2333328.330729-4.2333328 1.322916z"
     class="UnoptimicedTransforms"
     style="font-variation-settings:normal;-inkscape-stroke:none"
     transform="matrix(1.21528 0 0 1 -2.405118 9.6e-7)"
     id="path3" />
  <g
     transform="translate(-17.462461)"
     id="g12">
    <path
       fill="url(#e)"
       d="M 22.754133,12.964582 20.637465,5.8208325 c 3.175,2.9104163 3.175,1.3229165 3.175,-2.3812496 2.116666,3.0353189 2.116666,3.0084578 4.233333,0 0,3.7041661 -0.01298,5.3096054 3.174999,2.3812496 l -2.116665,7.1437495"
       style="font-variation-settings:normal;fill:#ffdd55"
       id="path4"
       sodipodi:nodetypes="cccccc" />
    <path
       fill="url(#f)"
       d="m29.104131 12.964582-2.116667.264583s1.058334-2.645833 1.058334-6.8791659c.79375 1.0583332 2.381249 1.0583332 2.381249 1.0583332s-1.587499 3.7041657-1.322916 5.5562497z"
       style="font-variation-settings:normal;-inkscape-stroke:none;fill:#ccb144;fill-opacity:1"
       id="path5" />
    <path
       fill="none"
       stroke="#000"
       stroke-linejoin="round"
       stroke-width="1.05833"
       d="m22.224965 11.112498-1.5875-5.2916655c3.175 2.9104163 3.175 1.3229165 3.175-2.3812496 2.116666 3.4395828 2.116666 3.4395828 4.233333 0 0 3.7041661-.01298 5.3096054 3.174999 2.3812496l-1.5875 5.2916655"
       style="font-variation-settings:normal"
       id="path6" />
    <ellipse
       cx="23.812468"
       cy="3.4395826"
       fill="url(#g)"
       stroke="#000"
       stroke-linejoin="round"
       stroke-width="1.05833"
       rx="1.0583324"
       ry="1.0583333"
       style="font-variation-settings:normal;-inkscape-stroke:none;fill:#ffdd55"
       id="ellipse6" />
    <ellipse
       cx="28.045797"
       cy="3.4395828"
       fill="url(#h)"
       stroke="#000"
       stroke-linejoin="round"
       stroke-width="1.05833"
       rx="1.0583324"
       ry="1.0583333"
       style="font-variation-settings:normal;-inkscape-stroke:none;fill:#ffdd55"
       id="ellipse7" />
    <ellipse
       cx="31.2208"
       cy="5.8208327"
       fill="url(#i)"
       stroke="#000"
       stroke-linejoin="round"
       stroke-width="1.05833"
       rx="1.0583324"
       ry="1.0583333"
       style="font-variation-settings:normal;-inkscape-stroke:none;fill:#ffdd55"
       id="ellipse8" />
    <ellipse
       cx="20.637465"
       cy="5.8208327"
       fill="url(#j)"
       stroke="#000"
       stroke-linejoin="round"
       stroke-width="1.05833"
       rx="1.0583324"
       ry="1.0583333"
       style="font-variation-settings:normal;-inkscape-stroke:none;fill:#ffdd55"
       id="ellipse9" />
    <path
       fill="url(#k)"
       d="M76.464607 11.112498s-.264583 2.116667-.264565 3.175c1.587502.529167 4.233337.529167 4.233337.529167s2.645835 0 4.233335-.529167c-.000019-1.058333-.264602-3.175-.264602-3.175-1.322917.529167-3.968751.529167-3.968751.529167s-2.645835 0-3.968754-.529167z"
       transform="translate(-54.504191)"
       id="path9"
       style="fill:#ffdd55" />
    <path
       fill="url(#l)"
       d="m83.872944 11.112498.79375 3.175-1.852082.264583-.529207-2.910416 1.587539-.529167"
       style="font-variation-settings:normal;-inkscape-stroke:none;fill:#ccb144;fill-opacity:1"
       transform="translate(-54.504191)"
       id="path10" />
    <path
       fill="none"
       stroke="#000"
       stroke-linecap="round"
       stroke-linejoin="round"
       stroke-width="1.05833"
       d="M22.224963 11.112498s-.52913 2.116667-.529112 3.175c1.587502.529167 4.233337.529167 4.233337.529167s2.645835 0 4.233335-.529167c-.000019-1.058333-.529226-3.175-.529226-3.175-1.322917.529167-3.704167.529167-3.704167.529167s-2.381248 0-3.704167-.529167z"
       id="path11" />
    <path
       fill="none"
       stroke="#000"
       stroke-linejoin="round"
       stroke-width="1.05833"
       d="M29.897885 12.699998c-1.32292.529167-3.968746.529167-3.968746.529167s-2.645841 0-3.968758-.529167"
       id="path12" />
  </g>
</svg>
