<?xml version="1.0" encoding="UTF-8" standalone="no"?>
<svg
   viewBox="0 0 16.933329 16.933331"
   version="1.1"
   id="svg8"
   sodipodi:docname="wB waffle.svg"
   inkscape:version="1.3.2 (091e20e, 2023-11-25, custom)"
   xmlns:inkscape="http://www.inkscape.org/namespaces/inkscape"
   xmlns:sodipodi="http://sodipodi.sourceforge.net/DTD/sodipodi-0.dtd"
   xmlns:xlink="http://www.w3.org/1999/xlink"
   xmlns="http://www.w3.org/2000/svg"
   xmlns:svg="http://www.w3.org/2000/svg">
  <sodipodi:namedview
     id="namedview8"
     pagecolor="#ffffff"
     bordercolor="#000000"
     borderopacity="0.25"
     inkscape:showpageshadow="2"
     inkscape:pageopacity="0.0"
     inkscape:pagecheckerboard="0"
     inkscape:deskcolor="#d1d1d1"
     inkscape:zoom="48.070879"
     inkscape:cx="9.7356239"
     inkscape:cy="9.2051572"
     inkscape:window-width="1920"
     inkscape:window-height="1111"
     inkscape:window-x="-9"
     inkscape:window-y="-9"
     inkscape:window-maximized="1"
     inkscape:current-layer="g8" />
  <defs
     id="defs3">
    <linearGradient
       id="c">
      <stop
         offset="0"
         stop-opacity=".2"
         id="stop1" />
    </linearGradient>
    <linearGradient
       id="b"
       gradientTransform="scale(.07)">
      <stop
         offset="0"
         stop-color="#8c8c8c"
         id="stop2" />
    </linearGradient>
    <linearGradient
       id="a"
       gradientTransform="matrix(.07 0 0 .07 -53.975025 2.1166665)">
      <stop
         offset="0"
         stop-color="#595959"
         id="stop3" />
    </linearGradient>
    <linearGradient
       xlink:href="#a"
       id="e"
       x1="4.0848351"
       x2="13.229165"
       y1="8.8635406"
       y2="8.8635406"
       gradientUnits="userSpaceOnUse" />
    <linearGradient
       xlink:href="#b"
       id="g"
       x1="4.7624993"
       x2="10.583332"
       y1="11.509374"
       y2="11.509374"
       gradientUnits="userSpaceOnUse" />
    <linearGradient
       xlink:href="#b"
       id="f"
       x1="4.2333326"
       x2="9.8979397"
       y1="5.953124"
       y2="5.953124"
       gradientUnits="userSpaceOnUse"
       gradientTransform="translate(15)" />
    <linearGradient
       xlink:href="#c"
       id="d"
       x1="4.2333326"
       x2="103.04872"
       y1="24.341663"
       y2="24.341663"
       gradientTransform="matrix(1 0 0 1.25 .79374989 -3.0427069)"
       gradientUnits="userSpaceOnUse" />
    <linearGradient
       xlink:href="#b-1"
       id="h"
       gradientTransform="translate(-0.56398895,2.2101128)"
       gradientUnits="userSpaceOnUse" />
    <linearGradient
       id="b-1"
       gradientTransform="translate(-6e-8,2.1166665)">
      <stop
         offset="0"
         stop-color="#ccc"
         id="stop2-7" />
    </linearGradient>
  </defs>
  <path
     fill="url(#d)"
     d="M5.0270826 14.816665c0 .992188 2.645833 1.322916 4.2333328 1.322916 1.5874976 0 4.2333306-.330728 4.2333306-1.322916 0-.992187-2.778792-1.322916-4.2333306-1.322916-1.4545399 0-4.2333328.330729-4.2333328 1.322916z"
     class="UnoptimicedTransforms"
     style="font-variation-settings:normal;-inkscape-stroke:none"
     transform="matrix(1.09375 0 0 1 -1.265043 0)"
     id="path3" />
  <g
     transform="translate(.000003 .000004)"
     id="g8">
    <path
       fill="none"
       stroke="#000000"
       stroke-linecap="round"
       stroke-linejoin="round"
       stroke-width="1.05833"
       d="m 9.7298903,10.499757 c 0.122233,2.062215 2.7721567,0.455555 4.1898147,-0.9718972 0.859311,-0.8652476 1.344486,-2.991664 0.998131,-3.7189215 C 14.653087,5.2530342 14.243288,4.6169685 13.324794,4.3584461 12.465928,4.1167069 11.704479,4.2519136 10.35024,4.585944 9.5857903,4.3338354 9.1487573,4.3079353 8.4420193,4.3079353 c -0.448355,0 -1.282544,0.3374146 -1.741013,0.9237945 C 6.2909723,5.7561614 6.0764743,6.2384714 5.8162773,6.9522897 5.0007642,9.1895517 3.8651638,8.8922227 4.3414202,7.337436 4.7461142,6.0162745 4.2209522,4.5748583 2.0997693,4.4168828 v 1.6589109 c 1.538651,0.2127301 0.029157,1.8548591 0.451034,3.1984446 0.1930307,0.6147611 0.7293603,1.0301527 1.3533622,1.2023537 0.6378537,0.176023 1.1793907,0.02848 2.4875448,-0.378169 -0.79375,0.529167 -1.6292101,2.072429 -1.6292101,4.189095 1.5874991,0.529167 3.7041661,0.529167 3.7041661,0.529167 0,0 2.1166657,0 3.7041657,-0.529167 -0.511192,-1.533577 -0.416086,-2.918874 -0.416086,-2.918874"
       id="path7-0"
       sodipodi:nodetypes="cssscssssccssccccc"
       style="fill:#ffffff;fill-opacity:1;stroke:none" />
    <path
       style="fill:#cccccc;fill-opacity:1;stroke-width:1.058;stroke-linecap:round;stroke-linejoin:round"
       d="m 12.148724,4.6389833 c 1.131269,0.4252844 1.1603,1.3405051 1.122748,2.2297601 -0.06239,1.4774067 -0.91932,2.9044102 -2.287694,4.3230636 l 3.827681,-2.5587217 0.312039,-2.974774 -1.705814,-1.2481569 z"
       id="path1"
       sodipodi:nodetypes="csccccc" />
    <path
       fill="url(#h)"
       d="m 11.871407,12.793444 0.264583,1.5875 -1.602451,0.264583 -0.181371,-2.966323 1.311214,-0.113114"
       style="font-variation-settings:normal;fill:url(#h);-inkscape-stroke:none"
       id="path8-3"
       sodipodi:nodetypes="ccccc" />
    <path
       fill="none"
       stroke="#000000"
       stroke-linecap="round"
       stroke-linejoin="round"
       stroke-width="1.05833"
       d="m 9.72989,10.499757 c 0.1222329,2.062215 2.772157,0.455555 4.189815,-0.9718972 0.859311,-0.8652476 1.344486,-2.991664 0.998131,-3.7189215 C 14.653087,5.2530342 14.243288,4.6169685 13.324794,4.3584461 12.465928,4.1167069 11.704479,4.2519136 10.35024,4.585944 9.5857901,4.3338354 9.1473417,4.2632279 8.4420195,4.3079353 7.7856383,4.3495405 7.1594754,4.6453499 6.7010062,5.2317298 6.2909721,5.7561614 6.0764741,6.2384714 5.8162773,6.9522897 5.0007638,9.1895517 3.8651638,8.8922227 4.3414205,7.337436 4.746114,6.0162745 4.2209522,4.5748583 2.0997693,4.4168828 v 1.6589109 c 1.538651,0.2127301 0.029157,1.8548591 0.451034,3.1984446 0.1930307,0.6147611 0.7293603,1.0301527 1.3533622,1.2023537 0.6378538,0.176023 1.1793907,0.02848 2.4875444,-0.378169 -0.7937499,0.529167 -1.6292101,2.072429 -1.6292101,4.189095 1.5874998,0.529167 3.7041663,0.529167 3.7041663,0.529167 0,0 2.1166659,0 3.7041659,-0.529167 -0.511192,-1.533577 -0.416086,-2.918874 -0.416086,-2.918874"
       id="path7"
       sodipodi:nodetypes="cssscssssccssccccc" />
    <ellipse
       cx="8.0278921"
       cy="7.5819049"
       rx="0.52916664"
       ry="0.52916658"
       id="ellipse7" />
    <path
       fill="none"
       stroke="#000000"
       stroke-linejoin="round"
       stroke-width="1.05833"
       d="m 11.906248,12.699998 c -1.322916,0.529167 -3.4395825,0.529167 -3.4395825,0.529167 0,0 -1.8520831,10e-7 -3.1749996,-0.529166"
       id="path8"
       sodipodi:nodetypes="ccc" />
  </g>
</svg>
