<?xml version="1.0" encoding="UTF-8" standalone="no"?>
<svg
   viewBox="0 0 16.933329 16.93333"
   version="1.1"
   id="svg7"
   sodipodi:docname="wQ cardinal.svg"
   inkscape:version="1.3.2 (091e20e, 2023-11-25, custom)"
   xmlns:inkscape="http://www.inkscape.org/namespaces/inkscape"
   xmlns:sodipodi="http://sodipodi.sourceforge.net/DTD/sodipodi-0.dtd"
   xmlns:xlink="http://www.w3.org/1999/xlink"
   xmlns="http://www.w3.org/2000/svg"
   xmlns:svg="http://www.w3.org/2000/svg">
  <sodipodi:namedview
     id="namedview7"
     pagecolor="#ffffff"
     bordercolor="#000000"
     borderopacity="0.25"
     inkscape:showpageshadow="2"
     inkscape:pageopacity="0.0"
     inkscape:pagecheckerboard="true"
     inkscape:deskcolor="#d1d1d1"
     inkscape:zoom="43.597163"
     inkscape:cx="8.8079126"
     inkscape:cy="7.8560158"
     inkscape:window-width="1920"
     inkscape:window-height="1111"
     inkscape:window-x="-9"
     inkscape:window-y="-9"
     inkscape:window-maximized="1"
     inkscape:current-layer="svg7" />
  <defs
     id="defs3">
    <linearGradient
       id="a">
      <stop
         offset="0"
         stop-color="#fff"
         id="stop1" />
    </linearGradient>
    <linearGradient
       id="b"
       gradientTransform="translate(-6e-8 2.1166665)">
      <stop
         offset="0"
         stop-color="#ccc"
         id="stop2" />
    </linearGradient>
    <linearGradient
       id="c">
      <stop
         offset="0"
         stop-opacity=".2"
         id="stop3" />
    </linearGradient>
    <linearGradient
       xlink:href="#a"
       id="e"
       x1="4.0848351"
       x2="13.229165"
       y1="8.8635406"
       y2="8.8635406"
       gradientUnits="userSpaceOnUse" />
    <linearGradient
       xlink:href="#b"
       id="f"
       gradientTransform="translate(-5.9999996e-8,2.1166665)"
       gradientUnits="userSpaceOnUse" />
    <linearGradient
       xlink:href="#c"
       id="d"
       x1="4.2333326"
       x2="103.04872"
       y1="24.341663"
       y2="24.341663"
       gradientTransform="matrix(1 0 0 1.25 .79374989 -3.0427069)"
       gradientUnits="userSpaceOnUse" />
    <linearGradient
       xlink:href="#a"
       id="e-4"
       x1="40.76622"
       x2="48.133766"
       y1="8.2020826"
       y2="8.2020826"
       gradientUnits="userSpaceOnUse"
       gradientTransform="matrix(1,0,0,0.65389153,-21.962217,-3.1265427)" />
    <linearGradient
       xlink:href="#a"
       id="g"
       x1="4.7624993"
       x2="12.170832"
       y1="13.758332"
       y2="13.758332"
       gradientUnits="userSpaceOnUse" />
    <linearGradient
       xlink:href="#a"
       id="i"
       x1="6.8791485"
       x2="10.054144"
       y1="2.9104161"
       y2="2.9104161"
       gradientUnits="userSpaceOnUse"
       gradientTransform="translate(14.021131,-4.5001604)" />
    <linearGradient
       xlink:href="#a"
       id="k"
       x1="76.200043"
       x2="84.666718"
       y1="12.964581"
       y2="12.964581"
       gradientUnits="userSpaceOnUse"
       gradientTransform="rotate(-20.494459,67.389546,163.08307)" />
    <linearGradient
       xlink:href="#b"
       id="l"
       gradientTransform="rotate(-20.494459,73.243822,162.02474)"
       gradientUnits="userSpaceOnUse" />
    <linearGradient
       xlink:href="#a"
       id="k-2"
       x1="76.200043"
       x2="84.666718"
       y1="12.964581"
       y2="12.964581"
       gradientUnits="userSpaceOnUse"
       gradientTransform="rotate(-20.494459,42.431579,171.90365)" />
    <linearGradient
       xlink:href="#b"
       id="l-3"
       gradientTransform="rotate(-20.494459,48.285855,170.84532)"
       gradientUnits="userSpaceOnUse" />
    <linearGradient
       inkscape:collect="always"
       xlink:href="#c"
       id="linearGradient11"
       gradientUnits="userSpaceOnUse"
       gradientTransform="matrix(1.1383601,-0.42548994,0.437646,1.1708826,7.4962882,-1.8060462)"
       x1="4.2333326"
       y1="24.341663"
       x2="103.04872"
       y2="24.341663" />
    <linearGradient
       xlink:href="#a"
       id="e-4-1"
       x1="40.76622"
       x2="48.133766"
       y1="8.2020826"
       y2="8.2020826"
       gradientUnits="userSpaceOnUse"
       gradientTransform="matrix(1,0,0,0.52523776,-21.962217,-2.757615)" />
    <linearGradient
       xlink:href="#a"
       id="i-9"
       x1="6.8791485"
       x2="10.054144"
       y1="2.9104161"
       y2="2.9104161"
       gradientUnits="userSpaceOnUse"
       gradientTransform="translate(14.02113,-4.3905991)" />
    <linearGradient
       xlink:href="#a"
       id="e-8"
       x1="40.76622"
       x2="48.133766"
       y1="8.2020826"
       y2="8.2020826"
       gradientUnits="userSpaceOnUse"
       gradientTransform="matrix(1,0,0,0.55079268,-35.983347,1.58721)" />
    <linearGradient
       xlink:href="#b"
       id="f-0"
       gradientTransform="translate(-6e-8,2.1166665)"
       gradientUnits="userSpaceOnUse" />
    <linearGradient
       xlink:href="#a"
       id="i-7"
       x1="6.8791485"
       x2="10.054144"
       y1="2.9104161"
       y2="2.9104161"
       gradientUnits="userSpaceOnUse"
       gradientTransform="translate(6.5325358e-7,-0.19558122)" />
    <linearGradient
       inkscape:collect="always"
       xlink:href="#b"
       id="linearGradient2"
       gradientUnits="userSpaceOnUse"
       gradientTransform="matrix(1,0,0,0.55079268,-6e-8,2.7530544)" />
    <linearGradient
       xlink:href="#linearGradient6"
       id="e-9"
       x1="4.0848351"
       x2="13.229165"
       y1="8.8635406"
       y2="8.8635406"
       gradientUnits="userSpaceOnUse"
       gradientTransform="translate(16.441746,-3.0808059)" />
    <linearGradient
       id="linearGradient6">
      <stop
         offset="0"
         stop-color="#fff"
         id="stop6"
         style="stop-color:#595959;stop-opacity:1;" />
    </linearGradient>
    <linearGradient
       xlink:href="#linearGradient6"
       id="k-2-1"
       x1="76.200043"
       x2="84.666718"
       y1="12.964581"
       y2="12.964581"
       gradientUnits="userSpaceOnUse"
       gradientTransform="translate(-55.068027,-1.7343461)" />
  </defs>
  <g
     id="g7"
     transform="translate(-0.83909314,-1.3464598)">
    <path
       fill="url(#e)"
       d="m 4.7624993,14.287498 c 1.5874998,0.529167 3.7041663,0.529167 3.7041663,0.529167 0,0 2.1166664,0 3.7041664,-0.529167 -0.79375,-2.38125 1.058333,-3.225494 1.058333,-5.6067437 0,-3.9687494 -4.7624995,-4.0707845 -4.7624995,-4.0707845 v 1.0280765 c 0,0 -3.9687496,2.2489581 -4.2333328,2.5135414 -0.2645832,0.2645833 -0.1183253,0.5570994 0,0.7937499 0.2645833,0.5291666 0.5291666,0.7937499 0.7937499,1.0583334 0.2645833,0.264583 0.5291666,0.264583 0.7937499,0 0.2645833,-0.2645835 0.7937499,-0.5291668 1.0583332,-0.5291668 0.2645833,0 1.0583332,0.2645833 1.3229165,0.2645833 0.2645833,0 1.3229165,-0.2645833 1.8520828,-0.7937499 C 8.7312488,10.268254 7.9374989,10.268254 7.143749,10.79742 6.3499991,11.326587 4.7624993,12.170832 4.7624993,14.287498 Z"
       id="path4"
       sodipodi:nodetypes="cccsccsssssscsc"
       style="fill:url(#e)" />
    <path
       fill="url(#f)"
       d="m -6.0854366,12.699998 0.2645826,1.5875 -1.5267299,0.412962 c -0.5291664,-3.968749 2.0558993,-4.117128 2.0558993,-6.7629611 0.7937499,0.7937499 -0.793752,4.7624991 -0.793752,4.7624991 z"
       style="font-variation-settings:normal;fill:url(#f);-inkscape-stroke:none"
       transform="translate(17.991677)"
       id="path5"
       sodipodi:nodetypes="ccccc" />
    <ellipse
       cx="8.7312489"
       cy="7.4083323"
       rx="0.52916664"
       ry="0.52916658"
       id="ellipse6" />
  </g>
  <g
     id="g11"
     transform="rotate(20.494459,6.2571456,-28.198842)">
    <path
       fill="url(#d)"
       d="m 18.568212,13.121695 c 0.347381,0.929388 3.475085,0.113408 5.282232,-0.562057 1.807144,-0.675464 4.703261,-2.111035 4.355879,-3.0404229 -0.347381,-0.929388 -3.626441,-0.05684 -5.282229,0.5620559 -1.655791,0.618892 -4.703264,2.111036 -4.355882,3.040424 z"
       class="UnoptimicedTransforms"
       style="font-variation-settings:normal;fill:url(#linearGradient11);stroke-width:1.1024;-inkscape-stroke:none"
       id="path3-8" />
    <path
       fill="url(#k)"
       d="m 18.014841,9.3740701 c 0,0 0.493244,2.0753289 0.863801,3.0666699 1.672293,-0.06014 4.150662,-0.986488 4.150662,-0.986488 0,0 2.47837,-0.926352 3.780121,-1.9778359 -0.370558,-0.99134 -1.359475,-2.8814 -1.359475,-2.8814 -1.053915,0.958849 -3.532283,1.8852 -3.532283,1.8852 0,0 -2.47837,0.926351 -3.902826,0.893854 z"
       id="path9"
       style="fill:url(#k-2)" />
    <path
       fill="url(#l)"
       d="m 24.954275,6.7802861 1.855131,2.696137 -1.642222,0.8962809 -1.514696,-2.5409199 1.301787,-1.051498"
       style="font-variation-settings:normal;fill:url(#l-3);-inkscape-stroke:none"
       id="path10-0" />
  </g>
  <ellipse
     cx="7.8921556"
     cy="6.061873"
     rx="0.52916664"
     ry="0.52916658"
     id="ellipse6-1" />
  <path
     fill="none"
     stroke="#000000"
     stroke-linecap="round"
     stroke-linejoin="round"
     stroke-width="1.05833"
     d="m 11.788623,11.112498 c -0.161895,-1.3743779 0.601449,-2.2079909 0.601449,-3.7782036 0,-3.9687494 -4.7624995,-4.0707845 -4.7624995,-4.0707845 v 1.0280765 c 0,0 -3.968749,2.2489581 -4.233332,2.5135414 -0.264584,0.2645833 -0.118326,0.5570994 0,0.7937499 0.264583,0.5291666 0.529166,0.7937499 0.793749,1.0583334 0.264584,0.264583 0.529167,0.264583 0.79375,0 0.264584,-0.2645835 0.79375,-0.5291668 1.058334,-0.5291668 0.264583,0 1.058333,0.2645833 1.322916,0.2645833 0.264583,0 1.364059,-0.3777261 1.852083,-0.7937499 -0.541203,0.4177744 -1.882179,1.4632036 -2.910416,1.8520824 -0.568318,0.2149374 -1.697042,0.6731929 -1.924367,1.6615389"
     id="path6-0"
     sodipodi:nodetypes="csccsssssscsc" />
  <g
     transform="rotate(47.380794,12.499535,9.4100512)"
     id="g10">
    <path
       fill="url(#e)"
       d="M 6.349981,8.7280069 C 1.852064,5.6676652 8.466647,3.4817071 8.466647,3.4817071 c 0,0 6.614582,2.1859581 2.116667,5.2462998"
       style="font-variation-settings:normal;fill:url(#e-8);stroke-width:1;-inkscape-stroke:none"
       id="path4-2" />
    <path
       fill="url(#f)"
       d="M 8.2020638,3.9188986 C 10.31873,4.3560903 11.906231,7.5621622 7.9374808,8.8737372 L 10.583314,8.7280069 C 14.816647,6.250587 11.11248,4.0646289 8.4666468,3.7731682 Z"
       style="font-variation-settings:normal;fill:url(#linearGradient2);stroke-width:1;-inkscape-stroke:none"
       id="path5-3" />
    <path
       fill="none"
       stroke="#000000"
       stroke-linejoin="round"
       stroke-miterlimit="2.4"
       stroke-width="1.05833"
       d="M 6.349981,8.7280069 C 1.852064,5.3762041 8.466647,3.7731682 8.466647,3.7731682 c 0,0 6.614582,1.6030359 2.116667,4.9548387 -1.4212678,0.3120897 -2.715123,0.3089368 -4.233333,0 z"
       style="font-variation-settings:normal;-inkscape-stroke:none"
       id="path6-5"
       sodipodi:nodetypes="cccc" />
    <ellipse
       cx="8.4666471"
       cy="2.7148349"
       fill="url(#i)"
       stroke="#000000"
       stroke-linejoin="round"
       stroke-width="1.05833"
       rx="1.0583324"
       ry="1.0583333"
       style="font-variation-settings:normal;fill:url(#i-7);-inkscape-stroke:none"
       id="ellipse9" />
    <path
       fill="none"
       stroke="#000000"
       stroke-linecap="round"
       stroke-linejoin="round"
       stroke-miterlimit="2.4"
       stroke-width="1.05833"
       d="m 8.4666469,3.7731682 c 3.1749991,0.8743832 1.0583332,2.0402275 0,2.6231497"
       style="font-variation-settings:normal"
       id="path10" />
  </g>
  <path
     fill="none"
     stroke="#000000"
     stroke-linecap="round"
     stroke-linejoin="round"
     stroke-width="1.05833"
     d="m 4.3802895,11.112499 c 0,0 -0.529131,2.116667 -0.529112,3.174999 1.587502,0.529164 4.233337,0.529168 4.233337,0.529168 0,0 2.6458335,0 4.2333345,-0.529168 -2e-5,-1.058333 -0.529226,-3.175 -0.529226,-3.175 -1.322917,0.529168 -3.7041665,0.529167 -3.7041665,0.529167 0,0 -2.381249,0 -3.704167,-0.529166 z"
     id="path11-2-8" />
  <path
     fill="none"
     stroke="#000000"
     stroke-linejoin="round"
     stroke-width="1.05833"
     d="m 12.053211,12.699999 c -1.32292,0.529166 -3.9687455,0.529166 -3.9687455,0.529166 0,0 -2.645841,0 -3.968758,-0.529167"
     id="path12-4" />
</svg>
